<?xml version="1.0" encoding="utf-8"?>
<!-- Generator: Adobe Illustrator 26.4.1, SVG Export Plug-In . SVG Version: 6.00 Build 0)  -->
<svg version="1.1" id="Ebene_1" xmlns="http://www.w3.org/2000/svg" xmlns:xlink="http://www.w3.org/1999/xlink" x="0px" y="0px"
	 viewBox="0 0 120 120" style="enable-background:new 0 0 120 120;" xml:space="preserve">
<style type="text/css">
	.st0{fill:#FFFFFF;}
</style>
<g>
	<path class="st0" d="M52.3,92.8c25.1,0,45.4-19,45.4-42.4C97.7,27,77.4,8,52.3,8S7,27,7,50.4C7,73.8,27.3,92.8,52.3,92.8"/>
	<path d="M52.3,66.1c1.5,0,2.7-1.2,2.7-2.7c0-1.5-1.2-2.7-2.7-2.7c-1.5,0-2.7,1.2-2.7,2.7C49.7,64.9,50.9,66.1,52.3,66.1"/>
	<path d="M39.2,38.4c-2.2,2.2-5.5,2.5-7.4,0.7c-1.8-1.8-1.5-5.1,0.7-7.4c2.2-2.2,5.5-2.5,7.4-0.7C41.7,32.9,41.4,36.2,39.2,38.4
		 M42.8,48.7c6.3-6.3,7.1-15.7,1.8-21c-5.3-5.3-14.7-4.5-21,1.8c-6.3,6.3-7.1,15.7-1.8,21C27.1,55.8,36.5,55,42.8,48.7 M59,56.7
		H45.7c-1.5,0-2.7,1.2-2.7,2.7c0,0.9,0.4,1.6,1.1,2.1l0,0.1l5.4,3.2v2.3v0v0.3c-0.1,3.2-2.7,5.7-5.9,5.7c0,0,0,0-0.1,0
		c0,0,0,0-0.1,0c-1.6,0-3.1-0.6-4.2-1.7c-1.1-1.1-2.9-1.1-4,0c-1.1,1.1-1.1,2.9,0,4c2.2,2.2,5.1,3.4,8.2,3.4c0,0,0.1,0,0.1,0
		c0,0,0,0,0.1,0c3.5,0,6.6-1.6,8.7-4.1c2.1,2.5,5.2,4.1,8.7,4.1c0,0,0.1,0,0.1,0c0,0,0,0,0.1,0c3.1,0,6-1.2,8.2-3.4
		c1.1-1.1,1.1-2.9,0-4c-1.1-1.1-2.9-1.1-4,0c-1.1,1.1-2.6,1.7-4.2,1.7c0,0,0,0-0.1,0c0,0,0,0-0.1,0c-3.2,0-5.8-2.5-5.9-5.7v-2.5
		l5.4-3.2l0-0.1c0.6-0.5,1.1-1.2,1.1-2.1C61.7,57.9,60.5,56.7,59,56.7 M72.9,39.1c-1.8,1.8-5.1,1.5-7.4-0.7
		c-2.2-2.2-2.5-5.5-0.7-7.4c1.8-1.8,5.1-1.5,7.4,0.7C74.4,34,74.7,37.3,72.9,39.1 M82.9,50.5c5.3-5.3,4.5-14.7-1.8-21
		c-6.3-6.3-15.7-7.1-21-1.8c-5.3,5.3-4.5,14.7,1.8,21C68.2,55,77.6,55.8,82.9,50.5 M94.9,50.4C94.9,72.2,75.8,90,52.3,90
		C28.9,90,9.8,72.2,9.8,50.4c0-21.8,19.1-39.6,42.6-39.6C75.8,10.8,94.9,28.6,94.9,50.4 M99.6,5.1C92.3-2.1,80-1.6,72,6.3
		c-0.7,0.7-1.3,1.4-1.9,2.1c-5.5-2.1-11.5-3.2-17.8-3.2C46,5.2,40,6.4,34.5,8.4C34,7.7,33.3,7,32.7,6.3C24.7-1.6,12.4-2.1,5.1,5.1
		c-7.3,7.3-6.8,19.6,1.2,27.5c0.4,0.4,0.8,0.8,1.3,1.1c-2.2,5.1-3.4,10.7-3.4,16.6c0,24.9,21.6,45.2,48.2,45.2
		c26.6,0,48.2-20.3,48.2-45.2c0-5.9-1.2-11.5-3.4-16.6c0.4-0.4,0.9-0.7,1.3-1.1C106.3,24.7,106.8,12.4,99.6,5.1"/>
</g>
</svg>
